<?xml version="1.0" standalone="no"?>
<!DOCTYPE svg PUBLIC "-//W3C//DTD SVG 20010904//EN"
 "http://www.w3.org/TR/2001/REC-SVG-20010904/DTD/svg10.dtd">
<svg version="1.0" xmlns="http://www.w3.org/2000/svg"
 width="1024.000000pt" height="1024.000000pt" viewBox="0 0 1024.000000 1024.000000"
 preserveAspectRatio="xMidYMid meet">
<metadata>
Created by potrace 1.16, written by Peter Selinger 2001-2019
</metadata>
<g transform="translate(0.000000,1024.000000) scale(0.100000,-0.100000)"
fill="#000000" stroke="none">
<path d="M6150 9600 l0 -100 -95 0 -95 0 0 -85 0 -85 -95 0 -95 0 0 85 0 85
-650 0 -650 0 0 -62 c0 -35 -3 -73 -6 -85 l-6 -23 -274 0 -274 0 0 -80 0 -80
-185 0 -185 0 6 -180 7 -180 -69 -2 c-38 -1 -81 -2 -96 -1 l-28 1 0 -89 0 -89
-90 0 -90 0 0 350 0 350 -100 0 -100 0 0 -445 0 -445 -270 0 -270 0 0 -95 0
-95 -90 0 -90 0 0 -185 0 -185 -85 0 -85 0 0 -690 0 -690 79 0 c63 0 80 -3 85
-16 3 -9 6 -92 6 -186 l0 -171 90 5 90 5 0 -105 0 -105 90 5 90 5 0 -203 0
-204 79 0 78 0 7 -46 c3 -26 6 -215 6 -421 l0 -375 95 4 95 3 0 -95 0 -95 93
0 92 0 3 -98 3 -99 92 3 92 3 3 -87 3 -87 183 0 c158 0 185 -2 190 -16 8 -20
8 -142 0 -171 l-6 -23 -734 0 -733 0 -3 -107 -3 -108 -262 -3 -263 -2 0 -110
0 -110 -94 0 -93 0 -7 -31 c-3 -17 -6 -67 -6 -110 l0 -79 -95 0 -95 0 0 -392
0 -393 -85 4 -85 3 0 -661 0 -661 -175 0 -175 0 0 -100 0 -99 -87 -3 -88 -3
-3 -167 -2 -168 2195 0 2196 0 -7 175 -7 175 97 0 96 0 0 -175 0 -175 188 0
187 0 -3 170 -3 170 -89 0 -90 0 0 205 0 204 -91 3 -92 3 2 92 2 93 -100 0
-101 0 0 100 0 100 -90 0 -90 0 0 100 0 100 -88 0 -89 0 -6 152 c-4 83 -7 200
-7 260 l0 108 -92 0 -93 0 3 -154 3 -155 -91 -3 -91 -3 2 159 1 159 -186 -2
-186 -1 0 102 0 103 90 -3 90 -3 0 100 0 100 -37 4 c-21 2 -10 4 25 3 34 -1
62 2 62 6 0 4 19 8 43 7 36 -1 38 -2 17 -9 -21 -7 -19 -8 16 -9 34 -1 43 3 47
19 4 15 0 20 -16 20 -16 0 -18 -3 -8 -9 9 -6 10 -11 2 -15 -6 -4 -11 -2 -11 3
0 6 -20 11 -44 11 -25 0 -47 4 -50 8 -3 5 18 8 47 6 l52 -3 -50 8 c-27 5 -63
6 -80 3 -16 -3 -27 -1 -23 3 4 4 43 8 87 9 43 0 74 -2 68 -6 -7 -5 -3 -8 11
-8 l23 0 -3 180 -3 180 146 0 c81 0 159 2 175 5 54 10 56 4 62 -206 3 -126 9
-197 16 -202 6 -4 88 -7 181 -5 l170 3 3 -289 2 -289 280 6 280 7 2 -178 3
-177 36 -3 c47 -4 90 13 83 33 -10 25 25 30 47 7 16 -18 19 -36 19 -134 l0
-113 -192 2 -193 2 -3 96 -3 96 -84 -3 -85 -3 0 -187 0 -188 233 0 c343 0 621
-11 629 -24 5 -8 8 -7 8 2 0 6 11 12 25 12 14 0 25 -6 25 -12 2 -27 2 -144 1
-155 -1 -9 -49 -13 -188 -16 -147 -2 -126 -3 100 -5 l287 -2 0 -375 0 -375
191 0 191 0 -6 117 c-3 65 -3 187 0 271 l7 152 89 0 88 0 0 -270 0 -270 1280
0 1280 0 0 170 0 169 -92 3 -93 3 0 98 0 97 -91 0 c-107 0 -104 -4 -104 120
l0 75 -175 -3 -175 -3 0 105 0 105 -77 3 -78 3 -1 354 -2 353 -88 2 -89 1 -3
93 -3 92 -89 0 -90 0 0 180 0 180 -185 0 -185 0 0 125 0 125 -90 0 -90 0 0
100 0 100 -90 0 -90 0 0 320 0 320 95 0 95 0 0 388 0 387 270 -3 270 -3 0 521
0 520 90 0 90 0 0 44 c0 23 3 71 6 105 l7 61 -97 0 -96 0 0 100 0 100 -89 0
-89 0 -4 31 c-3 17 -3 42 0 55 l4 24 269 0 269 0 0 80 0 80 -90 0 -90 0 0 110
0 110 265 0 265 0 0 175 0 175 -95 0 -95 0 0 140 0 140 -80 0 -80 0 0 130 0
130 255 0 255 0 0 85 0 85 -80 0 -80 0 0 95 0 96 -157 -1 c-87 -1 -166 -1
-175 0 -16 0 -18 11 -18 90 l0 90 -91 0 -91 0 4 190 3 190 -92 0 -93 0 0 90 0
90 -90 0 -90 0 0 95 0 95 -95 0 -95 0 0 96 0 96 -279 -3 -280 -4 -7 84 c-3 46
-4 122 -1 168 l5 83 -94 0 -94 0 0 -80 0 -80 -280 0 -280 0 0 265 0 265 -190
0 -190 0 0 -100z m360 -990 c0 -11 -6 -20 -12 -20 -10 0 -12 -17 -8 -62 l4
-63 7 60 6 60 1 -57 c1 -33 7 -58 13 -58 5 0 7 -4 4 -10 -4 -6 19 -10 62 -10
37 0 78 -3 90 -6 15 -4 22 -1 26 13 2 10 6 -37 8 -105 l4 -122 -40 1 -40 2 35
7 c26 5 12 8 -52 9 l-88 1 0 89 c0 59 -4 92 -12 97 -6 4 -14 2 -16 -4 -2 -7
-8 -12 -14 -12 -6 0 -4 7 3 17 11 13 11 17 2 20 -8 3 -13 23 -13 54 l0 49 -40
0 c-33 0 -40 -3 -40 -20 0 -17 -7 -20 -40 -20 -37 0 -40 2 -41 28 -1 15 -1 30
0 35 0 4 -18 7 -41 7 -23 0 -39 3 -35 6 3 3 41 2 84 -2 75 -8 76 -9 33 -15
-35 -5 -26 -6 40 -7 50 0 75 3 60 7 -24 7 -24 7 8 14 17 4 32 11 32 16 0 5
-15 12 -32 14 -32 4 -32 4 5 5 31 2 37 -1 37 -18z m1325 -75 l0 -95 -87 0 -88
0 0 95 0 95 88 0 87 0 0 -95z m-2055 -1185 c0 -31 4 -40 18 -41 9 -1 134 -2
277 -3 l260 -1 3 -57 3 -58 94 0 95 0 0 -100 0 -100 169 0 c93 0 176 -3 185
-6 13 -5 16 -24 16 -105 l0 -99 113 -1 c61 -1 104 -3 95 -6 -19 -5 -25 -43 -8
-43 6 0 10 -5 10 -11 0 -5 -5 -7 -11 -3 -8 5 -10 -12 -6 -55 4 -59 17 -98 17
-53 0 19 6 22 45 22 43 0 59 12 33 24 -10 5 -10 7 0 12 6 3 13 22 14 42 1 30
3 26 8 -18 l7 -55 3 43 c4 58 4 59 14 69 5 5 6 -5 2 -22 -5 -22 -4 -26 4 -15
5 8 10 26 10 40 1 23 1 24 12 6 6 -12 9 -49 5 -97 l-5 -79 104 0 104 0 0 -215
0 -215 -94 0 -95 0 -4 -52 c-3 -29 -5 -69 -4 -88 1 -19 0 -135 -1 -257 l-2
-223 -96 0 -96 0 7 210 8 210 -97 0 -96 0 0 100 0 100 -95 0 -95 0 0 100 0
100 -751 0 -752 0 6 -101 c3 -55 7 -103 10 -105 2 -2 254 -7 561 -11 l556 -6
0 -89 0 -88 -447 0 c-247 0 -626 -1 -843 -3 l-395 -2 -3 98 -3 97 91 0 90 0 0
105 0 105 95 0 95 0 0 115 0 115 95 0 95 0 0 203 0 202 -95 -3 -96 -3 3 103 3
103 93 0 c109 0 107 -3 100 126 l-5 79 284 0 283 0 0 -40z m-2040 -1520 l0
-100 84 0 83 0 7 -37 c3 -21 6 -68 6 -105 l0 -68 90 0 90 0 2 -202 c3 -314 4
-372 6 -390 2 -16 14 -18 92 -18 l90 0 0 105 0 105 90 0 90 0 0 200 0 199 93
3 92 3 3 98 3 97 363 0 363 0 6 -152 c4 -83 7 -312 7 -510 l0 -358 68 0 c38 0
72 3 76 7 12 12 46 10 46 -4 0 -11 115 -13 649 -13 l649 0 6 23 c3 12 6 56 6
97 0 72 1 76 23 76 12 0 52 1 90 2 l67 2 0 215 0 215 100 0 100 0 0 -100 0
-100 100 0 100 0 0 -105 0 -105 59 0 c32 0 73 -3 90 -6 l31 -6 0 -89 0 -89
-95 0 -96 0 3 -395 3 -394 -100 -3 -100 -3 0 -255 c0 -140 -1 -326 -2 -412
l-3 -157 -92 -3 -93 -3 -3 -98 -3 -97 -355 0 c-195 1 -361 3 -369 7 -20 7 -22
143 -2 144 10 0 10 2 0 6 -7 2 -13 11 -13 19 0 11 -20 14 -100 14 -59 0 -100
4 -100 10 0 6 -96 8 -275 3 l-274 -6 -3 109 -3 109 -155 1 c-96 1 -138 -2
-110 -6 39 -7 35 -7 -25 -6 l-70 2 -3 87 -3 87 -93 0 c-85 0 -94 2 -99 20 -5
18 -14 20 -96 20 l-90 0 -3 103 -3 102 -92 -1 -93 -1 0 99 0 98 -85 0 -85 0
-2 -87 -2 -88 -5 90 -6 90 -87 -3 -88 -4 0 206 0 207 -465 -3 -464 -3 -3 95
-3 94 -87 -3 -88 -3 0 106 0 106 -95 0 -95 0 0 500 0 500 95 0 95 0 0 105 0
105 280 0 280 0 0 -100z m2222 -201 l3 -101 90 -2 90 -1 3 -202 2 -203 190 0
190 0 0 208 c0 115 3 250 6 300 l7 92 173 0 174 0 0 -300 0 -300 -90 0 -90 0
0 -105 0 -105 -464 0 c-414 0 -465 2 -470 16 -8 21 -8 733 0 773 l7 31 88 0
88 0 3 -101z m2058 -309 l0 -410 -177 2 -178 3 -3 395 c-1 217 0 401 3 407 3
10 49 13 180 13 l175 0 0 -410z"/>
<path d="M4714 5696 c-3 -7 -4 -35 -2 -62 l3 -49 190 3 c105 2 204 5 220 8 24
3 26 2 10 -5 -11 -5 -92 -11 -180 -12 -133 -2 -147 -4 -80 -9 l80 -6 -80 -5
c-50 -3 -18 -5 85 -5 130 0 147 1 80 6 l-85 7 85 -1 c51 -1 84 -5 82 -11 -1
-6 -84 -10 -221 -10 -121 0 -223 -4 -227 -8 -10 -10 593 -7 631 3 18 5 2 6
-40 3 -75 -6 -83 1 -19 16 l39 9 -55 2 c-63 3 -53 6 44 15 38 4 65 10 59 13
-12 9 -4 82 9 82 5 0 6 5 3 10 -3 6 0 10 9 10 8 0 17 -6 19 -12 3 -8 6 -6 6 5
1 16 -21 17 -329 17 -272 0 -332 -2 -336 -14z"/>
<path d="M3172 5424 l3 -107 91 2 91 2 2 -298 c1 -164 5 -300 8 -303 5 -5 327
-7 354 -2 14 3 16 20 14 125 -1 67 -3 202 -4 299 l-1 177 -87 3 -88 3 0 103 0
102 -193 0 -193 0 3 -106z"/>
<path d="M6640 5694 c0 -10 -13 -14 -44 -14 l-44 0 -4 -45 c-3 -47 2 -54 45
-56 17 -1 15 -3 -8 -9 -28 -7 -27 -8 15 -10 44 -2 44 -2 15 -11 -16 -5 -39 -7
-49 -5 -13 3 -16 2 -9 -5 6 -6 45 -9 89 -7 71 3 79 5 79 23 0 16 8 21 38 23
l37 3 0 -110 c0 -92 3 -111 15 -111 11 0 15 11 15 40 0 22 -5 40 -11 40 -7 0
-10 35 -9 103 1 56 1 110 1 119 -1 12 -12 18 -43 21 -41 3 -41 4 10 5 94 3 57
22 -43 21 -75 0 -95 -3 -95 -15z"/>
</g>
</svg>
